<svg width="256" height="256" viewBox="0 0 256 256" fill="none" xmlns="http://www.w3.org/2000/svg">
  <rect width="256" height="256" rx="56" fill="#F5F3EE"/>
  <path d="M128 30L196 58V120C196 170 166.5 213.5 128 228C89.5 213.5 60 170 60 120V58L128 30Z" fill="#2D7A6B"/>
  <path d="M95 94H142C158 94 169 104.5 169 120.5C169 136 158.5 147 143.5 147H117V177H95V94ZM117 130H139.5C145.5 130 148 126.5 148 121C148 115 145 111.5 139.5 111.5H117V130Z" fill="#FFFDF8"/>
  <path d="M128 30L196 58V120C196 170 166.5 213.5 128 228C89.5 213.5 60 170 60 120V58L128 30Z" stroke="#1D5C51" stroke-width="8"/>
</svg>
